<svg width="180" height="45" viewBox="0 0 180 45" fill="none" xmlns="http://www.w3.org/2000/svg">
<path d="M2.512 44.736C2.08533 44.48 1.808 44.1387 1.68 43.712C1.50933 43.2853 1.296 42.88 1.04 42.496V42.304C1.04 42.0907 1.01867 41.8773 0.976 41.664C0.933333 41.4933 0.912 41.3227 0.912 41.152V40.128L1.68 40.704L1.808 40.64L2.192 40.064L2.512 40L2.768 39.68C3.74933 39.2533 4.56 38.8907 5.2 38.592C5.79733 38.336 6.52267 37.8667 7.376 37.184L7.504 37.12C7.20533 37.504 6.992 37.9093 6.864 38.336C6.736 38.7627 6.50133 39.1467 6.16 39.488L6.096 39.872L6.352 40.192C7.248 39.8507 8.29333 38.9547 9.488 37.504C10.6827 36.0533 11.92 34.304 13.2 32.256C14.48 30.208 15.696 28.096 16.848 25.92C18 23.7013 18.96 21.6747 19.728 19.84C20.5387 18.0053 21.0507 16.5973 21.264 15.616L21.136 15.424L20.752 15.872L20.496 14.464C20.112 14.5067 19.8773 14.2933 19.792 13.824C19.7067 13.312 19.664 12.8 19.664 12.288C19.664 11.8613 19.6427 11.4987 19.6 11.2C19.6 10.8587 19.536 10.688 19.408 10.688L19.28 10.176L19.536 9.28L21.776 8.832V7.616C21.9467 7.01867 21.8613 6.50667 21.52 6.08C21.2213 5.61067 20.9653 5.14133 20.752 4.672C20.752 4.37333 20.9227 3.94667 21.264 3.392C21.6053 2.79467 21.9467 2.496 22.288 2.496L22.608 2.624C22.864 3.60533 23.0773 4.58667 23.248 5.568C23.4613 6.54933 23.6107 7.552 23.696 8.576H23.952C24.2933 8.576 24.5067 8.64 24.592 8.768C24.6773 8.896 24.72 9.152 24.72 9.536C24.72 10.944 24.912 12.3307 25.296 13.696C25.7227 15.0613 25.936 16.4693 25.936 17.92C25.936 18.4747 26.1067 19.4133 26.448 20.736C26.7893 22.016 27.2373 23.36 27.792 24.768C28.3467 26.1333 28.944 27.328 29.584 28.352C30.2667 29.3333 30.9493 29.824 31.632 29.824H32.336C32.8053 29.44 33.2533 29.0987 33.68 28.8C34.1067 28.4587 34.5333 28.096 34.96 27.712C35.4293 27.2853 35.664 26.9867 35.664 26.816C35.7067 26.6453 35.792 26.2827 35.92 25.728C36.0053 25.3867 36.1333 25.088 36.304 24.832C36.5173 24.5333 36.6667 24.2347 36.752 23.936C38.0747 21.0347 39.184 17.984 40.08 14.784C41.0187 11.5413 41.488 8.34133 41.488 5.184L41.104 4.288C40.7627 4.45867 40.4 4.62933 40.016 4.8C39.632 4.928 39.3333 5.16267 39.12 5.504L38.736 5.696L38.224 5.632C37.456 6.31466 36.6667 6.976 35.856 7.616C35.088 8.21333 34.3413 8.87467 33.616 9.6L33.296 9.472C33.552 9.088 34 8.512 34.64 7.744C35.28 6.976 36.0053 6.16533 36.816 5.312C37.6267 4.416 38.3947 3.56267 39.12 2.752C39.8453 1.89867 40.4 1.19467 40.784 0.639999C40.9973 0.554666 41.1893 0.469332 41.36 0.383999C41.5733 0.298665 41.7653 0.255999 41.936 0.255999C42.7893 0.255999 43.4293 0.554665 43.856 1.152C44.2827 1.74933 44.496 2.432 44.496 3.2C44.496 4.26667 44.3467 5.29067 44.048 6.272C43.7493 7.25333 43.6427 8.29867 43.728 9.408L43.472 9.856H43.152L43.216 9.28L43.088 9.088C43.0027 9.68533 42.7253 10.368 42.256 11.136C41.8293 11.904 41.7227 12.5653 41.936 13.12L41.424 13.824C41.5093 13.9947 41.552 14.208 41.552 14.464C41.552 15.9147 41.2747 17.344 40.72 18.752C40.1653 20.1173 39.5893 21.504 38.992 22.912C38.4373 24.2773 38.16 25.7067 38.16 27.2C38.16 27.4987 38.2667 27.7547 38.48 27.968C38.6933 28.1387 38.8 28.3733 38.8 28.672C38.8 29.3547 38.5653 30.1867 38.096 31.168C37.6693 32.1493 37.1147 33.0453 36.432 33.856C35.792 34.7093 35.152 35.328 34.512 35.712L33.488 35.776C33.0613 35.8187 32.528 35.7333 31.888 35.52C31.2907 35.3493 30.8213 35.072 30.48 34.688V34.56L29.904 34.624C29.136 34.7093 28.368 34.3893 27.6 33.664C26.8747 32.9387 26.192 32.0213 25.552 30.912C24.9547 29.8027 24.464 28.6933 24.08 27.584C23.7387 26.4747 23.568 25.5787 23.568 24.896C23.568 24.8533 23.6107 24.704 23.696 24.448C23.7813 24.192 23.8453 24.0213 23.888 23.936L23.632 23.616L23.504 23.68L22.992 22.464L23.312 21.696L22.672 20.8H22.608C22.2667 20.8 22.0107 20.6507 21.84 20.352C21.712 20.0533 21.6053 19.7547 21.52 19.456C21.3493 19.9253 21.0507 20.6507 20.624 21.632C20.1973 22.5707 19.728 23.5947 19.216 24.704C18.704 25.7707 18.2133 26.752 17.744 27.648C17.2747 28.544 16.912 29.1627 16.656 29.504L16.72 29.568C16.5067 29.8667 16.2933 30.1653 16.08 30.464C15.9093 30.7627 15.7173 31.0827 15.504 31.424L15.568 31.488L15.44 31.744C15.2693 31.9573 15.0987 32.1707 14.928 32.384C14.8 32.5973 14.6507 32.832 14.48 33.088C14.0107 34.0267 13.3067 35.0933 12.368 36.288C11.472 37.4827 10.448 38.656 9.296 39.808C8.144 41.0027 6.97067 42.0267 5.776 42.88C4.58133 43.776 3.49333 44.3947 2.512 44.736ZM42.576 11.968L42.384 11.712C42.4267 11.584 42.4907 11.456 42.576 11.328C42.704 11.1573 42.8107 11.0293 42.896 10.944L42.768 10.56L42.96 10.432H43.28C43.2373 10.7307 43.1733 11.008 43.088 11.264C43.0027 11.52 42.832 11.7547 42.576 11.968ZM41.936 14.208C41.936 13.9093 41.9787 13.632 42.064 13.376C42.192 13.12 42.3413 12.864 42.512 12.608L42.576 12.928C42.5333 13.184 42.448 13.4187 42.32 13.632C42.2347 13.8027 42.1067 13.9947 41.936 14.208ZM30.992 32.128L31.056 31.936L30.992 31.616L30.8 32.064L30.992 32.128ZM7.952 36.928L8.08 36.544L8.272 36.672L8.4 36.928H7.952ZM52.6525 16C52.5245 16 52.1832 15.9573 51.6285 15.872C51.1165 15.744 50.8605 15.5947 50.8605 15.424C50.8605 14.784 51.1805 14.3147 51.8205 14.016C52.5032 13.7173 53.0578 13.4187 53.4845 13.12H53.6125C54.2098 12.6507 54.9138 12.3307 55.7245 12.16C56.5778 11.9893 57.3672 11.8827 58.0925 11.84L58.0285 11.904C57.2178 12.16 56.4925 12.6293 55.8525 13.312C55.2125 13.952 54.6152 14.5707 54.0605 15.168C53.5485 15.7227 53.0792 16 52.6525 16ZM44.3965 33.792L43.3725 32.32C43.3298 32.0213 43.2658 31.744 43.1805 31.488C43.0952 31.1893 43.0525 30.8907 43.0525 30.592C43.0525 30.208 43.0738 29.824 43.1165 29.44C43.1592 29.056 43.2018 28.672 43.2445 28.288L43.6925 27.2L43.6285 27.136C43.8418 26.624 44.0552 25.9627 44.2685 25.152C44.4818 24.3413 44.7378 23.5307 45.0365 22.72C45.3778 21.8667 45.7832 21.1627 46.2525 20.608C46.7218 20.0107 47.2978 19.712 47.9805 19.712C48.4498 19.712 48.9832 19.8827 49.5805 20.224C50.1778 20.5653 50.4765 21.0133 50.4765 21.568C50.4765 21.7813 50.3058 22.1653 49.9645 22.72C49.6658 23.2747 49.3032 23.8933 48.8765 24.576C48.4498 25.216 48.0232 25.792 47.5965 26.304C47.2125 26.7733 46.9352 27.0507 46.7645 27.136C46.3805 27.8187 45.8472 28.608 45.1645 29.504C44.4818 30.4 44.1405 31.232 44.1405 32C44.1405 32.2987 44.1832 32.576 44.2685 32.832C44.3965 33.088 44.4605 33.3653 44.4605 33.664L44.3965 33.792ZM53.4995 32.448C53.0728 32.448 52.5822 32.192 52.0275 31.68C51.5155 31.168 51.0888 30.784 50.7475 30.528C50.7048 29.9733 50.5768 29.4827 50.3635 29.056C50.1502 28.5867 50.0435 28.0747 50.0435 27.52C50.0435 26.752 50.3208 25.856 50.8755 24.832C51.4728 23.7653 52.2195 22.7413 53.1155 21.76C54.0542 20.736 54.9928 19.8827 55.9315 19.2C56.9128 18.5173 57.7875 18.176 58.5555 18.176V18.048C59.2808 18.2187 59.9208 18.752 60.4755 19.648C61.0302 20.544 61.3075 21.3547 61.3075 22.08C61.3075 22.2507 61.2648 22.464 61.1795 22.72C61.0942 22.976 60.9448 23.104 60.7315 23.104C60.1768 22.8907 59.7075 22.592 59.3235 22.208C58.9395 21.824 58.4062 21.632 57.7235 21.632C57.0835 21.632 56.4222 21.9093 55.7395 22.464C55.0568 23.0187 54.4382 23.7227 53.8835 24.576C53.3288 25.3867 52.8808 26.24 52.5395 27.136C52.1982 27.9893 52.0275 28.7147 52.0275 29.312C52.0275 29.3547 52.0488 29.4613 52.0915 29.632C52.1768 29.8027 52.2408 29.9307 52.2835 30.016C52.5822 30.2293 52.9448 30.336 53.3715 30.336C53.8408 30.2933 54.2462 30.2933 54.5875 30.336L54.6515 30.4L54.7795 30.08C55.3768 29.9947 55.9315 29.8667 56.4435 29.696V29.312H56.8275L56.7635 29.12L57.0835 29.184C57.2968 29.0987 57.4462 29.0133 57.5315 28.928C57.6595 28.8 57.8088 28.6933 57.9795 28.608L58.2995 28.8V28.736L59.4515 27.648H59.5155L59.7715 27.776V27.712C60.3262 27.2 60.9022 26.7307 61.4995 26.304C62.1395 25.8773 62.6088 25.3227 62.9075 24.64L63.7395 24.128L63.8035 24.256C63.8035 24.5547 63.6968 24.832 63.4835 25.088C63.2702 25.344 63.0355 25.5147 62.7795 25.6C62.3528 26.4107 61.8195 27.0933 61.1795 27.648C60.5395 28.2027 59.8782 28.7787 59.1955 29.376H58.9395L58.8755 29.696C58.1075 30.2507 57.2755 30.848 56.3795 31.488C55.4835 32.128 54.5235 32.448 53.4995 32.448ZM64.5075 24.064L63.9955 23.936V23.552L64.5715 23.36L64.6355 23.552L64.5075 24.064ZM65.744 30.528C65.104 30.528 64.5707 30.3787 64.144 30.08C63.7173 29.7387 63.3333 29.2907 62.992 28.736H62.864L62.928 28.224L62.8 28.288V27.904L63.12 27.648H62.992L62.608 27.328H62.736L62.864 27.072V26.944L62.736 26.624V26.496H62.608L61.712 26.048V25.856C61.4133 25.5573 61.1573 25.2373 60.944 24.896C60.7733 24.512 60.688 24.1067 60.688 23.68C60.688 23.0827 60.944 22.3787 61.456 21.568C62.0107 20.7573 62.6507 20.032 63.376 19.392C64.144 18.752 64.8267 18.432 65.424 18.432C65.7227 18.1333 66.1493 17.984 66.704 17.984L66.896 17.792L67.216 17.856C67.6853 17.6427 68.1973 17.5787 68.752 17.664L68.816 17.536H72.4C72.7413 17.536 73.168 17.6213 73.68 17.792C74.2347 17.9627 74.6613 18.0907 74.96 18.176C75.344 18.6027 75.856 18.944 76.496 19.2C77.136 19.4133 77.456 19.8827 77.456 20.608C77.456 21.504 77.2 22.3573 76.688 23.168C76.176 23.9787 75.5787 24.6187 74.896 25.088H74.832C74.7893 25.216 74.576 25.4293 74.192 25.728C73.8507 25.984 73.4667 26.2613 73.04 26.56C72.656 26.816 72.4 27.008 72.272 27.136L72.08 27.712C71.7813 27.712 71.504 27.8187 71.248 28.032C70.992 28.2027 70.864 28.4373 70.864 28.736C70.9493 28.9067 71.1413 29.056 71.44 29.184C71.7387 29.2693 71.9947 29.312 72.208 29.312L71.952 29.44C70.5867 29.44 69.5413 29.5467 68.816 29.76C68.0907 29.9307 67.5147 30.1013 67.088 30.272C66.6613 30.4427 66.2133 30.528 65.744 30.528ZM67.472 28.864C68.7947 28.224 69.712 27.7333 70.224 27.392C70.7787 27.008 71.1627 26.688 71.376 26.432C71.5893 26.1333 71.8667 25.7493 72.208 25.28C72.5493 24.8107 73.168 24.1493 74.064 23.296V23.168C73.8933 23.168 73.744 23.1467 73.616 23.104C73.6587 22.72 73.744 22.3573 73.872 22.016C74.0427 21.632 74.128 21.2267 74.128 20.8C74.128 20.032 73.8293 19.4133 73.232 18.944C72.6773 18.432 72.0373 18.176 71.312 18.176C70.928 18.176 70.5227 18.2187 70.096 18.304C69.712 18.3893 69.3493 18.496 69.008 18.624L68.176 18.56C67.4933 18.816 66.7253 19.2 65.872 19.712C65.0613 20.224 64.3573 20.8427 63.76 21.568C63.1627 22.2507 62.864 23.0187 62.864 23.872C62.864 24.2987 62.9493 24.6613 63.12 24.96L63.376 25.024V24.832L63.696 24.64L64.144 23.68V23.424L64.528 22.848L64.656 22.912L64.848 22.528L65.168 22.336V22.272C65.296 22.2293 65.424 22.1867 65.552 22.144C65.7227 22.1013 65.872 22.0373 66 21.952C66 21.6107 66.1493 21.4187 66.448 21.376C66.7467 21.2907 66.9173 21.0987 66.96 20.8H67.344L67.792 20.288L68.048 20.48L68.624 20.096H69.2V20.288C68.56 20.4587 67.856 20.928 67.088 21.696C66.32 22.4213 65.68 23.232 65.168 24.128C64.656 25.024 64.4213 25.8347 64.464 26.56L64.528 27.712C64.9973 27.9253 65.4667 28.1813 65.936 28.48C66.4053 28.736 66.9173 28.864 67.472 28.864ZM65.616 29.312L66 29.12L64.528 28.416L64.4 28.48L64.656 29.056L65.616 29.312ZM125.82 35.584C124.881 35.584 123.964 35.456 123.068 35.2C122.215 34.944 121.34 34.7307 120.444 34.56L120.572 34.304C120.444 33.9627 120.124 33.7493 119.612 33.664C119.143 33.5787 118.631 33.5147 118.076 33.472C117.521 33.472 117.095 33.4293 116.796 33.344L116.476 32.96H116.284C115.815 32.96 115.409 32.832 115.068 32.576C114.727 32.3627 114.407 32.1067 114.108 31.808L113.148 31.936L112.892 31.488V31.168L112.572 30.848L112.316 31.168C111.889 31.0827 111.399 30.8907 110.844 30.592C110.332 30.2933 110.055 29.9093 110.012 29.44C109.799 29.2267 109.457 28.8213 108.988 28.224C108.561 27.584 108.113 26.944 107.644 26.304C107.217 25.6213 106.897 25.1307 106.684 24.832L107.004 24.256L106.812 23.872L106.556 23.936C106.3 23.7227 106.151 23.424 106.108 23.04C106.108 22.656 106.129 22.3147 106.172 22.016L105.66 21.504H105.468C105.425 21.8027 105.297 22.1653 105.084 22.592C104.913 23.0187 104.636 23.232 104.252 23.232V22.784L103.868 22.272H103.804C103.633 22.272 103.484 22.3573 103.356 22.528C103.271 22.656 103.271 22.8267 103.356 23.04C103.228 23.2107 103.1 23.3813 102.972 23.552C102.844 23.68 102.78 23.8507 102.78 24.064L103.1 24.64L103.612 24.512L103.868 24.64C103.868 24.768 103.612 25.1093 103.1 25.664C102.588 26.2187 102.055 26.9013 101.5 27.712C100.945 28.48 100.604 29.2907 100.476 30.144L99.708 30.592L100.22 30.912L100.476 31.424L100.028 32.256L100.284 32.512C100.327 32.7253 100.369 32.9387 100.412 33.152C100.497 33.408 100.604 33.6213 100.732 33.792L101.052 33.92C101.479 33.92 101.969 33.7707 102.524 33.472C103.121 33.1733 103.697 32.8107 104.252 32.384C104.849 32 105.319 31.7013 105.66 31.488L105.916 31.808C105.873 31.9787 105.639 32.2987 105.212 32.768C104.828 33.28 104.401 33.7707 103.932 34.24C103.463 34.7093 103.143 35.072 102.972 35.328H102.14C101.5 35.328 100.732 35.2213 99.836 35.008C98.94 34.8373 98.1293 34.5173 97.404 34.048C96.7213 33.6213 96.38 33.0027 96.38 32.192C96.38 31.2107 96.636 30.016 97.148 28.608C97.66 27.1573 98.2787 25.664 99.004 24.128C99.772 22.592 100.54 21.1413 101.308 19.776C102.119 18.4107 102.78 17.28 103.292 16.384L103.1 16.064C102.716 16.064 102.46 15.808 102.332 15.296C102.247 14.784 102.183 14.2507 102.14 13.696C102.14 13.1413 102.033 12.8213 101.82 12.736H101.756L101.628 12.288L101.884 11.584C102.481 11.3707 103.1 11.1787 103.74 11.008C104.38 10.7947 105.041 10.688 105.724 10.688L105.468 10.816L106.556 11.2L109.692 6.4C109.223 6.4 108.348 6.50667 107.068 6.72C105.831 6.93333 104.401 7.21067 102.78 7.552C101.201 7.89333 99.644 8.29867 98.108 8.768C96.6147 9.19467 95.356 9.664 94.332 10.176C93.3507 10.6453 92.8173 11.1147 92.732 11.584L93.244 11.776C93.5427 11.6053 93.8413 11.52 94.14 11.52C94.4813 11.4773 94.8227 11.456 95.164 11.456L96.06 11.136L95.996 11.264C95.0573 11.8613 94.204 12.544 93.436 13.312C92.668 14.0373 91.9 14.8053 91.132 15.616L90.748 15.744L90.492 16.192L89.788 16.32L89.724 16.448L89.788 17.6L87.612 16.512C87.4413 16.0427 87.1853 15.616 86.844 15.232C86.5453 14.848 86.396 14.4 86.396 13.888C88.0173 11.8827 89.9587 10.368 92.22 9.344C94.4813 8.27733 96.7213 7.21067 98.94 6.144L98.876 6.208C98.9613 6.25067 99.0893 6.29333 99.26 6.336C99.4307 6.37867 99.5587 6.4 99.644 6.4C99.9853 6.4 100.327 6.336 100.668 6.208C101.009 6.03733 101.351 5.90933 101.692 5.824V5.952C102.076 5.86667 102.46 5.78133 102.844 5.696C103.228 5.568 103.633 5.41866 104.06 5.248V5.376L105.02 5.056V4.992L105.34 5.056L105.276 4.992L105.98 4.672L106.364 4.8L106.236 4.672H106.428V4.8H107.388L107.836 4.608L107.964 4.416L109.692 4.48L109.756 4.416L110.332 4.16C110.631 4.16 110.908 4.16 111.164 4.16C111.463 4.11733 111.761 4.096 112.06 4.096C112.359 3.75466 112.615 3.34933 112.828 2.88C113.084 2.41067 113.489 2.176 114.044 2.176C114.641 2.176 115.175 2.304 115.644 2.56C116.113 2.816 116.625 2.944 117.18 2.944C117.265 3.2 117.607 3.456 118.204 3.712C118.801 3.92533 119.463 4.11733 120.188 4.288C120.956 4.416 121.681 4.52267 122.364 4.608C123.047 4.65067 123.537 4.672 123.836 4.672L126.588 5.504L126.78 5.44C127.164 5.44 127.697 5.696 128.38 6.208C129.063 6.72 129.724 7.27467 130.364 7.872C131.047 8.46933 131.537 8.91733 131.836 9.216C131.921 9.51467 132.007 9.83467 132.092 10.176C132.177 10.5173 132.305 10.8373 132.476 11.136C132.305 12.7573 132.007 13.9733 131.58 14.784C131.153 15.552 130.535 16.1067 129.724 16.448C128.913 16.7893 127.804 17.152 126.396 17.536L125.564 17.472V17.792H125.436L125.18 17.536L122.62 18.304V17.92C121.809 18.4747 121.191 18.752 120.764 18.752C120.38 18.752 119.761 18.7947 118.908 18.88L118.844 18.752C118.673 18.9227 118.503 19.0293 118.332 19.072C118.161 19.072 117.969 19.072 117.756 19.072C117.073 19.072 116.433 19.2427 115.836 19.584C115.281 19.9253 114.684 20.0533 114.044 19.968V20.288L113.724 20.224L113.468 19.968L113.34 20.224V20.288L113.212 20.224C113.127 20.1813 113.041 20.16 112.956 20.16C112.871 20.1173 112.785 20.096 112.7 20.096C112.487 20.096 112.273 20.1387 112.06 20.224C111.847 20.2667 111.633 20.288 111.42 20.288L111.484 19.904L111.356 19.968C110.972 19.8827 110.567 19.8827 110.14 19.968C109.756 20.0533 109.372 20.1387 108.988 20.224C110.055 22.4427 111.057 24.2773 111.996 25.728C112.935 27.136 114.023 28.416 115.26 29.568C116.54 30.72 118.183 32 120.188 33.408C121.297 33.4933 122.407 33.6853 123.516 33.984C124.625 34.3253 125.756 34.496 126.908 34.496C127.548 34.496 128.188 34.432 128.828 34.304C129.468 34.176 130.108 34.112 130.748 34.112H131.004C130.748 34.3253 130.279 34.5387 129.596 34.752C128.913 35.008 128.209 35.2 127.484 35.328C126.759 35.4987 126.204 35.584 125.82 35.584ZM108.348 18.752C110.865 18.2827 113.34 17.7707 115.772 17.216C118.247 16.6613 120.657 15.9573 123.004 15.104L123.068 15.04C123.836 14.7413 124.647 14.4 125.5 14.016C126.353 13.5893 127.1 13.056 127.74 12.416C128.38 11.776 128.7 11.008 128.7 10.112C128.529 9.728 128.295 9.32267 127.996 8.896C127.697 8.46933 127.292 8.21333 126.78 8.128C126.439 7.95733 125.948 7.744 125.308 7.488C124.711 7.18933 124.092 6.912 123.452 6.656C122.812 6.4 122.279 6.25067 121.852 6.208V6.272H121.66C121.404 6.144 121.169 6.08 120.956 6.08C120.785 6.08 120.615 6.10133 120.444 6.144C120.273 6.18667 120.081 6.208 119.868 6.208L119.356 5.824H118.588C118.119 5.824 117.649 5.824 117.18 5.824C116.711 5.78133 116.241 5.73867 115.772 5.696C115.217 6.208 114.513 6.93333 113.66 7.872C112.849 8.768 112.06 9.70667 111.292 10.688C110.567 11.6267 110.055 12.4587 109.756 13.184V13.824C109.287 14.0373 108.903 14.4 108.604 14.912C108.305 15.424 108.049 15.8933 107.836 16.32C108.177 17.216 108.348 18.0267 108.348 18.752ZM126.78 8.128C127.036 8.256 127.185 8.34133 127.228 8.384C127.271 8.384 127.164 8.32 126.908 8.192L126.78 8.128ZM106.364 31.232L105.916 31.104C105.916 30.8907 106.044 30.6987 106.3 30.528C106.599 30.3147 106.833 30.1867 107.004 30.144L107.196 30.272L106.364 31.232ZM131.244 30.528C130.604 30.528 130.071 30.3787 129.644 30.08C129.217 29.7387 128.833 29.2907 128.492 28.736H128.364L128.428 28.224L128.3 28.288V27.904L128.62 27.648H128.492L128.108 27.328H128.236L128.364 27.072V26.944L128.236 26.624V26.496H128.108L127.212 26.048V25.856C126.913 25.5573 126.657 25.2373 126.444 24.896C126.273 24.512 126.188 24.1067 126.188 23.68C126.188 23.0827 126.444 22.3787 126.956 21.568C127.511 20.7573 128.151 20.032 128.876 19.392C129.644 18.752 130.327 18.432 130.924 18.432C131.223 18.1333 131.649 17.984 132.204 17.984L132.396 17.792L132.716 17.856C133.185 17.6427 133.697 17.5787 134.252 17.664L134.316 17.536H137.9C138.241 17.536 138.668 17.6213 139.18 17.792C139.735 17.9627 140.161 18.0907 140.46 18.176C140.844 18.6027 141.356 18.944 141.996 19.2C142.636 19.4133 142.956 19.8827 142.956 20.608C142.956 21.504 142.7 22.3573 142.188 23.168C141.676 23.9787 141.079 24.6187 140.396 25.088H140.332C140.289 25.216 140.076 25.4293 139.692 25.728C139.351 25.984 138.967 26.2613 138.54 26.56C138.156 26.816 137.9 27.008 137.772 27.136L137.58 27.712C137.281 27.712 137.004 27.8187 136.748 28.032C136.492 28.2027 136.364 28.4373 136.364 28.736C136.449 28.9067 136.641 29.056 136.94 29.184C137.239 29.2693 137.495 29.312 137.708 29.312L137.452 29.44C136.087 29.44 135.041 29.5467 134.316 29.76C133.591 29.9307 133.015 30.1013 132.588 30.272C132.161 30.4427 131.713 30.528 131.244 30.528ZM132.972 28.864C134.295 28.224 135.212 27.7333 135.724 27.392C136.279 27.008 136.663 26.688 136.876 26.432C137.089 26.1333 137.367 25.7493 137.708 25.28C138.049 24.8107 138.668 24.1493 139.564 23.296V23.168C139.393 23.168 139.244 23.1467 139.116 23.104C139.159 22.72 139.244 22.3573 139.372 22.016C139.543 21.632 139.628 21.2267 139.628 20.8C139.628 20.032 139.329 19.4133 138.732 18.944C138.177 18.432 137.537 18.176 136.812 18.176C136.428 18.176 136.023 18.2187 135.596 18.304C135.212 18.3893 134.849 18.496 134.508 18.624L133.676 18.56C132.993 18.816 132.225 19.2 131.372 19.712C130.561 20.224 129.857 20.8427 129.26 21.568C128.663 22.2507 128.364 23.0187 128.364 23.872C128.364 24.2987 128.449 24.6613 128.62 24.96L128.876 25.024V24.832L129.196 24.64L129.644 23.68V23.424L130.028 22.848L130.156 22.912L130.348 22.528L130.668 22.336V22.272C130.796 22.2293 130.924 22.1867 131.052 22.144C131.223 22.1013 131.372 22.0373 131.5 21.952C131.5 21.6107 131.649 21.4187 131.948 21.376C132.247 21.2907 132.417 21.0987 132.46 20.8H132.844L133.292 20.288L133.548 20.48L134.124 20.096H134.7V20.288C134.06 20.4587 133.356 20.928 132.588 21.696C131.82 22.4213 131.18 23.232 130.668 24.128C130.156 25.024 129.921 25.8347 129.964 26.56L130.028 27.712C130.497 27.9253 130.967 28.1813 131.436 28.48C131.905 28.736 132.417 28.864 132.972 28.864ZM131.116 29.312L131.5 29.12L130.028 28.416L129.9 28.48L130.156 29.056L131.116 29.312ZM145.375 32.448C144.948 32.448 144.457 32.192 143.903 31.68C143.391 31.168 142.964 30.784 142.623 30.528C142.58 29.9733 142.452 29.4827 142.239 29.056C142.025 28.5867 141.919 28.0747 141.919 27.52C141.919 26.752 142.196 25.856 142.751 24.832C143.348 23.7653 144.095 22.7413 144.991 21.76C145.929 20.736 146.868 19.8827 147.807 19.2C148.788 18.5173 149.663 18.176 150.431 18.176V18.048C151.156 18.2187 151.796 18.752 152.351 19.648C152.905 20.544 153.183 21.3547 153.183 22.08C153.183 22.2507 153.14 22.464 153.055 22.72C152.969 22.976 152.82 23.104 152.607 23.104C152.052 22.8907 151.583 22.592 151.199 22.208C150.815 21.824 150.281 21.632 149.599 21.632C148.959 21.632 148.297 21.9093 147.615 22.464C146.932 23.0187 146.313 23.7227 145.759 24.576C145.204 25.3867 144.756 26.24 144.415 27.136C144.073 27.9893 143.903 28.7147 143.903 29.312C143.903 29.3547 143.924 29.4613 143.967 29.632C144.052 29.8027 144.116 29.9307 144.159 30.016C144.457 30.2293 144.82 30.336 145.247 30.336C145.716 30.2933 146.121 30.2933 146.463 30.336L146.527 30.4L146.655 30.08C147.252 29.9947 147.807 29.8667 148.319 29.696V29.312H148.703L148.639 29.12L148.959 29.184C149.172 29.0987 149.321 29.0133 149.407 28.928C149.535 28.8 149.684 28.6933 149.855 28.608L150.175 28.8V28.736L151.327 27.648H151.391L151.647 27.776V27.712C152.201 27.2 152.777 26.7307 153.375 26.304C154.015 25.8773 154.484 25.3227 154.783 24.64L155.615 24.128L155.679 24.256C155.679 24.5547 155.572 24.832 155.359 25.088C155.145 25.344 154.911 25.5147 154.655 25.6C154.228 26.4107 153.695 27.0933 153.055 27.648C152.415 28.2027 151.753 28.7787 151.071 29.376H150.815L150.751 29.696C149.983 30.2507 149.151 30.848 148.255 31.488C147.359 32.128 146.399 32.448 145.375 32.448ZM156.383 24.064L155.871 23.936V23.552L156.447 23.36L156.51 23.552L156.383 24.064ZM155.187 32.448C154.76 32.448 154.27 32.192 153.715 31.68C153.203 31.168 152.776 30.784 152.435 30.528C152.392 29.9733 152.264 29.4827 152.051 29.056C151.838 28.5867 151.731 28.0747 151.731 27.52C151.731 26.752 152.008 25.856 152.563 24.832C153.16 23.7653 153.907 22.7413 154.803 21.76C155.742 20.736 156.68 19.8827 157.619 19.2C158.6 18.5173 159.475 18.176 160.243 18.176V18.048C160.968 18.2187 161.608 18.752 162.163 19.648C162.718 20.544 162.995 21.3547 162.995 22.08C162.995 22.2507 162.952 22.464 162.867 22.72C162.782 22.976 162.632 23.104 162.419 23.104C161.864 22.8907 161.395 22.592 161.011 22.208C160.627 21.824 160.094 21.632 159.411 21.632C158.771 21.632 158.11 21.9093 157.427 22.464C156.744 23.0187 156.126 23.7227 155.571 24.576C155.016 25.3867 154.568 26.24 154.227 27.136C153.886 27.9893 153.715 28.7147 153.715 29.312C153.715 29.3547 153.736 29.4613 153.779 29.632C153.864 29.8027 153.928 29.9307 153.971 30.016C154.27 30.2293 154.632 30.336 155.059 30.336C155.528 30.2933 155.934 30.2933 156.275 30.336L156.339 30.4L156.467 30.08C157.064 29.9947 157.619 29.8667 158.131 29.696V29.312H158.515L158.451 29.12L158.771 29.184C158.984 29.0987 159.134 29.0133 159.219 28.928C159.347 28.8 159.496 28.6933 159.667 28.608L159.987 28.8V28.736L161.139 27.648H161.203L161.459 27.776V27.712C162.014 27.2 162.59 26.7307 163.187 26.304C163.827 25.8773 164.296 25.3227 164.595 24.64L165.427 24.128L165.491 24.256C165.491 24.5547 165.384 24.832 165.171 25.088C164.958 25.344 164.723 25.5147 164.467 25.6C164.04 26.4107 163.507 27.0933 162.867 27.648C162.227 28.2027 161.566 28.7787 160.883 29.376H160.627L160.563 29.696C159.795 30.2507 158.963 30.848 158.067 31.488C157.171 32.128 156.211 32.448 155.187 32.448ZM166.195 24.064L165.683 23.936V23.552L166.259 23.36L166.323 23.552L166.195 24.064ZM167.432 30.528C166.792 30.528 166.258 30.3787 165.832 30.08C165.405 29.7387 165.021 29.2907 164.68 28.736H164.552L164.616 28.224L164.488 28.288V27.904L164.808 27.648H164.68L164.296 27.328H164.424L164.552 27.072V26.944L164.424 26.624V26.496H164.296L163.4 26.048V25.856C163.101 25.5573 162.845 25.2373 162.632 24.896C162.461 24.512 162.376 24.1067 162.376 23.68C162.376 23.0827 162.632 22.3787 163.144 21.568C163.698 20.7573 164.338 20.032 165.064 19.392C165.832 18.752 166.514 18.432 167.112 18.432C167.41 18.1333 167.837 17.984 168.392 17.984L168.584 17.792L168.904 17.856C169.373 17.6427 169.885 17.5787 170.44 17.664L170.504 17.536H174.088C174.429 17.536 174.856 17.6213 175.368 17.792C175.922 17.9627 176.349 18.0907 176.648 18.176C177.032 18.6027 177.544 18.944 178.184 19.2C178.824 19.4133 179.144 19.8827 179.144 20.608C179.144 21.504 178.888 22.3573 178.376 23.168C177.864 23.9787 177.266 24.6187 176.583 25.088H176.52C176.477 25.216 176.264 25.4293 175.88 25.728C175.538 25.984 175.154 26.2613 174.728 26.56C174.344 26.816 174.088 27.008 173.96 27.136L173.768 27.712C173.469 27.712 173.192 27.8187 172.936 28.032C172.68 28.2027 172.552 28.4373 172.552 28.736C172.637 28.9067 172.829 29.056 173.128 29.184C173.426 29.2693 173.682 29.312 173.896 29.312L173.64 29.44C172.274 29.44 171.229 29.5467 170.504 29.76C169.778 29.9307 169.202 30.1013 168.776 30.272C168.349 30.4427 167.901 30.528 167.432 30.528ZM169.16 28.864C170.482 28.224 171.4 27.7333 171.912 27.392C172.466 27.008 172.85 26.688 173.064 26.432C173.277 26.1333 173.554 25.7493 173.896 25.28C174.237 24.8107 174.856 24.1493 175.752 23.296V23.168C175.581 23.168 175.432 23.1467 175.304 23.104C175.346 22.72 175.432 22.3573 175.56 22.016C175.73 21.632 175.816 21.2267 175.816 20.8C175.816 20.032 175.517 19.4133 174.92 18.944C174.365 18.432 173.725 18.176 173 18.176C172.616 18.176 172.21 18.2187 171.784 18.304C171.4 18.3893 171.037 18.496 170.696 18.624L169.864 18.56C169.181 18.816 168.413 19.2 167.56 19.712C166.749 20.224 166.045 20.8427 165.448 21.568C164.85 22.2507 164.552 23.0187 164.552 23.872C164.552 24.2987 164.637 24.6613 164.808 24.96L165.064 25.024V24.832L165.384 24.64L165.832 23.68V23.424L166.216 22.848L166.344 22.912L166.536 22.528L166.856 22.336V22.272C166.984 22.2293 167.112 22.1867 167.24 22.144C167.41 22.1013 167.56 22.0373 167.688 21.952C167.688 21.6107 167.837 21.4187 168.135 21.376C168.434 21.2907 168.605 21.0987 168.648 20.8H169.032L169.48 20.288L169.736 20.48L170.312 20.096H170.888V20.288C170.248 20.4587 169.544 20.928 168.776 21.696C168.008 22.4213 167.368 23.232 166.856 24.128C166.344 25.024 166.109 25.8347 166.152 26.56L166.216 27.712C166.685 27.9253 167.154 28.1813 167.624 28.48C168.093 28.736 168.605 28.864 169.16 28.864ZM167.304 29.312L167.688 29.12L166.216 28.416L166.088 28.48L166.344 29.056L167.304 29.312Z" fill="white"/>
</svg>
